# xmcd
#
# Track frame offsets: 
#        150
#        23860
#        42359
#        62831
#        86479
#        109427
#        127654
#        146564
#        171093
#        191803
#        207724
#        225705
#        245928
#        261789
#        283936
#        304774
#        327953
#
# Disc length: 4661 seconds
#
# Revision: 5
# Processed by: cddbd v1.5.2PL0 Copyright (c) Steve Scherf et al.
# Submitted via: ExactAudioCopyFreeDBPlugin 1.0
#
DISCID=07123311
DTITLE=Pieces Of A Dream - Pieces Of A Dream and We Are One
DYEAR=1982
DGENRE=Jazz+Funk
TTITLE0=Pieces Of A Dream
TTITLE1=Warm Weather
TTITLE2=Steady Glide
TTITLE3=Touch Me In The Spring
TTITLE4=All About Love
TTITLE5=Easy Road Home
TTITLE6=Lovers
TTITLE7=Body Magic
TTITLE8=Don't Be Sad
TTITLE9=Please Don't Do This To Me
TTITLE10=For Ramsey
TTITLE11=You Know I Want You
TTITLE12=Mt. Airy Groove
TTITLE13=We Are One
TTITLE14=When You Are Here With Me
TTITLE15=Pop Rock
TTITLE16=Yo Frat
EXTD=
EXTT0=
EXTT1=
EXTT2=
EXTT3=
EXTT4=
EXTT5=
EXTT6=
EXTT7=
EXTT8=
EXTT9=
EXTT10=
EXTT11=
EXTT12=
EXTT13=
EXTT14=
EXTT15=
EXTT16=
PLAYORDER=
